<?xml version="1.0" encoding="UTF-8"?>
<svg width="75px" height="80px" viewBox="0 0 75 80" version="1.1" xmlns="http://www.w3.org/2000/svg" xmlns:xlink="http://www.w3.org/1999/xlink">
    <!-- Generator: Sketch 44.1 (41455) - http://www.bohemiancoding.com/sketch -->
    <title>app/icons/calendar</title>
    <desc>Created with Sketch.</desc>
    <defs>
        <linearGradient x1="0%" y1="0%" x2="101.999998%" y2="100.999999%" id="linearGradient-1">
            <stop stop-color="#170032" offset="0%"></stop>
            <stop stop-color="#DA00FF" offset="99.5232096%"></stop>
            <stop stop-color="#DB00FF" offset="100%"></stop>
        </linearGradient>
    </defs>
    <g id="Symbols" stroke="none" stroke-width="1" fill="none" fill-rule="evenodd">
        <g id="app/icons/calendar" fill="url(#linearGradient-1)">
            <path d="M35,60 L40,60 L40,65 L35,65 L35,60 Z M35,70 L40,70 C42.76,70 45,67.76 45,65 L45,60 C45,57.24 42.76,55 40,55 L35,55 C32.24,55 30,57.24 30,60 L30,65 C30,67.76 32.24,70 35,70 L35,70 Z M15,60 L20,60 L20,65 L15,65 L15,60 Z M15,70 L20,70 C22.76,70 25,67.76 25,65 L25,60 C25,57.24 22.76,55 20,55 L15,55 C12.24,55 10,57.24 10,60 L10,65 C10,67.76 12.24,70 15,70 L15,70 Z M35,40 L40,40 L40,45 L35,45 L35,40 Z M35,50 L40,50 C42.76,50 45,47.76 45,45 L45,40 C45,37.24 42.76,35 40,35 L35,35 C32.24,35 30,37.24 30,40 L30,45 C30,47.76 32.24,50 35,50 L35,50 Z M15,40 L20,40 L20,45 L15,45 L15,40 Z M15,50 L20,50 C22.76,50 25,47.76 25,45 L25,40 C25,37.24 22.76,35 20,35 L15,35 C12.24,35 10,37.24 10,40 L10,45 C10,47.76 12.24,50 15,50 L15,50 Z M70,20 L5,20 L5,15 C5,12.24 7.24,10 10,10 L20,10 L20,12.5 C20,13.8825 21.1175,15 22.5,15 C23.8825,15 25,13.8825 25,12.5 L25,10 L50,10 L50,12.5 C50,13.8825 51.1175,15 52.5,15 C53.8825,15 55,13.8825 55,12.5 L55,10 L65,10 C67.76,10 70,12.24 70,15 L70,20 L70,20 Z M70,70 C70,72.76 67.76,75 65,75 L10,75 C7.24,75 5,72.76 5,70 L5,25 L70,25 L70,70 L70,70 Z M65,5 L55,5 L55,2.5 C55,1.12 53.8825,0 52.5,0 C51.1175,0 50,1.12 50,2.5 L50,5 L25,5 L25,2.5 C25,1.12 23.8825,0 22.5,0 C21.1175,0 20,1.12 20,2.5 L20,5 L10,5 C4.4775,5 0,9.4775 0,15 L0,70 C0,75.5225 4.4775,80 10,80 L65,80 C70.5225,80 75,75.5225 75,70 L75,15 C75,9.4775 70.5225,5 65,5 L65,5 Z M55,40 L60,40 L60,45 L55,45 L55,40 Z M55,50 L60,50 C62.76,50 65,47.76 65,45 L65,40 C65,37.24 62.76,35 60,35 L55,35 C52.24,35 50,37.24 50,40 L50,45 C50,47.76 52.24,50 55,50 L55,50 Z M55,60 L60,60 L60,65 L55,65 L55,60 Z M55,70 L60,70 C62.76,70 65,67.76 65,65 L65,60 C65,57.24 62.76,55 60,55 L55,55 C52.24,55 50,57.24 50,60 L50,65 C50,67.76 52.24,70 55,70 L55,70 Z" id="Fill-168"></path>
        </g>
    </g>
</svg>