<?xml version="1.0" encoding="UTF-8"?>
<svg width="66px" height="80px" viewBox="0 0 66 80" version="1.1" xmlns="http://www.w3.org/2000/svg" xmlns:xlink="http://www.w3.org/1999/xlink">
    <!-- Generator: Sketch 44.1 (41455) - http://www.bohemiancoding.com/sketch -->
    <title>app/icons/fire</title>
    <desc>Created with Sketch.</desc>
    <defs>
        <linearGradient x1="0%" y1="0%" x2="101.999998%" y2="100.999999%" id="linearGradient-1">
            <stop stop-color="#170032" offset="0%"></stop>
            <stop stop-color="#DA00FF" offset="99.5232096%"></stop>
            <stop stop-color="#DB00FF" offset="100%"></stop>
        </linearGradient>
    </defs>
    <g id="Symbols" stroke="none" stroke-width="1" fill="none" fill-rule="evenodd">
        <g id="app/icons/fire" fill="url(#linearGradient-1)">
            <path d="M34.3046559,75 C18.4246559,75 5.55465587,61.6025 5.55465587,46.5625 C5.55465587,43.07 5.63215587,40.235 8.05465587,37.5 C7.79215587,39.085 11.5471559,52.6375 23.8171559,51.9275 C23.2846559,41.63 20.4996559,16.4025 33.4346559,7.6825 C32.2921559,21.3925 35.6496559,39.81 50.6271559,42.5 C49.7696559,37.0025 49.8721559,27.8575 53.7221559,26.1675 C54.1371559,34.59 60.3646559,39.785 60.3646559,47.88 C60.3646559,62.54 46.1821559,75 34.3046559,75 L34.3046559,75 Z M57.8171559,17.3825 C46.8546559,20.5075 44.8471559,29.37 45.5546559,35 C37.7346559,25.805 38.0546559,15.2325 38.0546559,0 C12.9746559,9.4575 18.8071559,36.72 18.0546559,45 C11.7471559,39.8375 10.5546559,27.5 10.5546559,27.5 C3.89465587,30.9275 0.55465587,40.0775 0.55465587,47.5 C0.55465587,65.45 15.1046559,80 33.0546559,80 C51.0046559,80 65.5546559,65.45 65.5546559,47.5 C65.5546559,36.8325 57.7221559,31.9125 57.8171559,17.3825 L57.8171559,17.3825 Z" id="Fill-156"></path>
        </g>
    </g>
</svg>