<?xml version="1.0" encoding="UTF-8"?>
<svg width="78px" height="80px" viewBox="0 0 78 80" version="1.1" xmlns="http://www.w3.org/2000/svg" xmlns:xlink="http://www.w3.org/1999/xlink">
    <!-- Generator: Sketch 44.1 (41455) - http://www.bohemiancoding.com/sketch -->
    <title>app/icons/social</title>
    <desc>Created with Sketch.</desc>
    <defs>
        <linearGradient x1="0%" y1="0%" x2="101.999998%" y2="100.999999%" id="linearGradient-1">
            <stop stop-color="#170032" offset="0%"></stop>
            <stop stop-color="#DA00FF" offset="99.5232096%"></stop>
            <stop stop-color="#DB00FF" offset="100%"></stop>
        </linearGradient>
    </defs>
    <g id="Symbols" stroke="none" stroke-width="1" fill="none" fill-rule="evenodd">
        <g id="app/icons/social" fill="url(#linearGradient-1)">
            <path d="M5,28.75 C5,15.635 16.8825,5 32.5,5 C44.9325,5 57.5,15.635 57.5,28.75 C57.5,41.8675 47.6875,52.5 32.5,52.5 C30.2675,52.5 25.61,52.245 23.5325,51.8125 L15,57.5 L15,48.64 C8.9025,43.6925 5,37.085 5,28.75 L5,28.75 Z M24.0925,56.84 C26.035,57.1575 30.4525,57.5 32.5,57.5 C50.45,57.5 62.5,44.1425 62.5,28.4375 C62.5,12.7325 47.4425,0 32.5,0 C14.5275,0 0,12.7325 0,28.4375 C0,37.5375 3.4675,45.26 10,50.8225 L10,65 L24.0925,56.84 L24.0925,56.84 Z M67.3725,22.8475 C67.42,23.5625 67.5,24.2725 67.5,25 C67.5,26.59 67.345,28.1475 67.1225,29.685 C70.4875,33.625 72.5,38.48 72.5,43.75 C72.5,52.085 67.52,59.4025 60,63.64 L60,72.5 L51.4675,66.8125 C49.39,67.245 47.2325,67.5 45,67.5 C38.525,67.5 35.085,65.555 30.385,62.3225 C29.0225,62.4325 27.6475,62.5 26.25,62.5 C25.255,62.5 24.28,62.43 23.3,62.3725 C29.2525,68.19 35.3725,71.875 45,71.875 C47.0475,71.875 49.045,71.69 50.9875,71.3725 L65,80 L65,65.8225 C72.6,60.615 77.5,52.5375 77.5,43.4375 C77.5,35.3275 73.5975,28.0275 67.3725,22.8475 L67.3725,22.8475 Z M46.25,32.5 C48.3225,32.5 50,30.8225 50,28.75 C50,26.68 48.3225,25 46.25,25 C44.1775,25 42.5,26.68 42.5,28.75 C42.5,30.8225 44.1775,32.5 46.25,32.5 L46.25,32.5 Z M16.25,32.5 C18.3225,32.5 20,30.8225 20,28.75 C20,26.68 18.3225,25 16.25,25 C14.1775,25 12.5,26.68 12.5,28.75 C12.5,30.8225 14.1775,32.5 16.25,32.5 L16.25,32.5 Z M31.25,32.5 C33.3225,32.5 35,30.8225 35,28.75 C35,26.68 33.3225,25 31.25,25 C29.1775,25 27.5,26.68 27.5,28.75 C27.5,30.8225 29.1775,32.5 31.25,32.5 L31.25,32.5 Z" id="Fill-189"></path>
        </g>
    </g>
</svg>