<?xml version="1.0" encoding="UTF-8"?>
<svg width="36px" height="77px" viewBox="0 0 36 77" version="1.1" xmlns="http://www.w3.org/2000/svg" xmlns:xlink="http://www.w3.org/1999/xlink">
    <!-- Generator: Sketch 44.1 (41455) - http://www.bohemiancoding.com/sketch -->
    <title>Shape</title>
    <desc>Created with Sketch.</desc>
    <defs></defs>
    <g id="Website" stroke="none" stroke-width="1" fill="none" fill-rule="evenodd">
        <g id="Desktop" transform="translate(-391.000000, -2046.000000)" fill="#FFFFFF">
            <g id="Footer" transform="translate(0.000000, 1859.000000)">
                <g id="facebook25" transform="translate(348.000000, 164.000000)">
                    <path d="M66.9811247,48.5490672 L66.9811247,42.0738806 C66.9811247,41.1016791 67.0255885,40.3488806 67.1161835,39.8171642 C67.2062228,39.2843284 67.4107563,38.7604478 67.7281168,38.2432836 C68.0449215,37.7266791 68.5584786,37.3695896 69.2676765,37.1720149 C69.9774303,36.9738806 70.9211748,36.8753731 72.0989102,36.8753731 L78.5283784,36.8753731 L78.5283784,23.925 L68.2494551,23.925 C62.3013078,23.925 58.0300022,25.3460821 55.433871,28.1882463 C52.8377398,31.0309701 51.539952,35.218097 51.539952,40.751306 L51.539952,48.5490672 L43.8410418,48.5490672 L43.8410418,61.5 L51.5393963,61.5 L51.5393963,99.075 L66.9811247,99.075 L66.9811247,61.5 L77.260048,61.5 L78.6184176,48.5490672 L66.9811247,48.5490672 L66.9811247,48.5490672 Z" id="Shape"></path>
                </g>
            </g>
        </g>
    </g>
</svg>