<?xml version="1.0" encoding="UTF-8"?>
<svg width="74px" height="60px" viewBox="0 0 74 60" version="1.1" xmlns="http://www.w3.org/2000/svg" xmlns:xlink="http://www.w3.org/1999/xlink">
    <!-- Generator: Sketch 44.1 (41455) - http://www.bohemiancoding.com/sketch -->
    <title>Shape</title>
    <desc>Created with Sketch.</desc>
    <defs></defs>
    <g id="Website" stroke="none" stroke-width="1" fill="none" fill-rule="evenodd">
        <g id="Desktop" transform="translate(-578.000000, -2054.000000)" fill="#FFFFFF">
            <g id="Footer" transform="translate(0.000000, 1859.000000)">
                <g id="twitter" transform="translate(554.000000, 164.000000)">
                    <path d="M97.8764708,38.1252265 C94.9703403,39.3754783 92.0630592,40.1562383 89.1580795,40.4698081 C92.4393429,38.500935 94.6584966,35.7196571 95.814965,32.1259745 C92.8139006,33.9067058 89.6108858,35.1253129 86.2047697,35.7817957 C83.2042807,32.5943155 79.5173902,31 75.1417968,31 C70.9543454,31 67.3842525,32.4763672 64.4303674,35.4296769 C61.4770576,38.3829867 60.0006904,41.9530796 60.0006904,46.1405311 C60.0006904,47.2653549 60.125543,48.4218233 60.3758235,49.6093611 C54.1878542,49.296942 48.383073,47.7423262 42.9609045,44.9455137 C37.5387359,42.1481258 32.9370271,38.4215356 29.155778,33.7651679 C27.7806737,36.1085987 27.0931216,38.6557061 27.0931216,41.4059147 C27.0931216,43.999626 27.7024251,46.4063462 28.9216075,48.6249245 C30.1402146,50.8435028 31.781134,52.6403441 33.8437905,54.0154483 C31.406001,53.9216651 29.1247087,53.2807169 26.9999137,52.0931791 L26.9999137,52.2807457 C26.9999137,55.9371422 28.1483271,59.1476367 30.4451541,61.9139553 C32.741981,64.6802739 35.6406317,66.4218808 39.1405311,67.1405023 C37.8281407,67.4839907 36.4996404,67.6560226 35.1561808,67.6560226 C34.2810621,67.6560226 33.3276948,67.5777739 32.2966543,67.4224274 C33.2655562,70.4534104 35.0468629,72.9452835 37.6405742,74.898622 C40.2342855,76.8525359 43.1720606,77.8594114 46.4533241,77.9227007 C40.9534824,82.2344294 34.6878398,84.3908691 27.6563965,84.3908691 C26.3123616,84.3908691 25.0937545,84.3293058 24,84.2038779 C31.0314433,88.7348178 38.781508,91 47.2507695,91 C52.6257588,91 57.6727942,90.1490463 62.3907252,88.4459883 C67.1103823,86.7429303 71.1413366,84.461638 74.485314,81.6015362 C77.8287161,78.7425851 80.7118322,75.4532666 83.1335117,71.7341561 C85.5551912,68.015621 87.3595121,64.1331089 88.5476252,60.0860447 C89.735163,56.0384051 90.3289318,51.9844366 90.3289318,47.9212623 C90.3289318,47.0461437 90.3133972,46.3902362 90.2817525,45.9523892 C93.2511723,43.7971002 95.782745,41.1872788 97.8764708,38.1252265 L97.8764708,38.1252265 Z" id="Shape"></path>
                </g>
            </g>
        </g>
    </g>
</svg>